<?xml version="1.0" encoding="UTF-8" standalone="no"?>
<!DOCTYPE svg PUBLIC "-//W3C//DTD SVG 1.1//EN" "http://www.w3.org/Graphics/SVG/1.1/DTD/svg11.dtd">
<svg width="100%" height="100%" viewBox="0 0 3414 3414" version="1.1" xmlns="http://www.w3.org/2000/svg" xmlns:xlink="http://www.w3.org/1999/xlink" xml:space="preserve" xmlns:serif="http://www.serif.com/" style="fill-rule:evenodd;clip-rule:evenodd;stroke-linejoin:round;stroke-miterlimit:2;">
    <g transform="matrix(1,0,0,1,-5493,-427)">
        <g transform="matrix(1,0,0,1,-2834.85,7)">
            <g transform="matrix(1.00768,0,0,1.00768,8514.94,619.94)">
                <g transform="matrix(8.55444e-17,-1.39705,1.34722,8.24931e-17,-4817.28,3786.03)">
                    <path d="M1670.53,5026.99C1663.81,5016.07 1651.99,5009.43 1639.27,5009.43C1626.55,5009.43 1614.73,5016.07 1608.01,5026.99C1530.84,5153.48 1337.53,5486.47 1337.53,5647.54C1337.53,5815.94 1472.73,5952.66 1639.27,5952.66C1805.8,5952.66 1941,5815.94 1941,5647.54C1941,5486.47 1747.69,5153.48 1670.53,5026.99Z" style="fill:url(#_Linear1);"/>
                </g>
                <g transform="matrix(-8.55444e-17,-1.39705,-1.34722,8.24931e-17,7834.67,3786.03)">
                    <path d="M1670.53,5026.99C1663.81,5016.07 1651.99,5009.43 1639.27,5009.43C1626.55,5009.43 1614.73,5016.07 1608.01,5026.99C1530.84,5153.48 1337.53,5486.47 1337.53,5647.54C1337.53,5815.94 1472.73,5952.66 1639.27,5952.66C1805.8,5952.66 1941,5815.94 1941,5647.54C1941,5486.47 1747.69,5153.48 1670.53,5026.99Z" style="fill:url(#_Linear2);"/>
                </g>
                <g transform="matrix(1.39705,-2.46519e-32,-4.93038e-32,1.34722,-781.439,-4830.07)">
                    <path d="M1670.53,5026.99C1663.81,5016.07 1651.99,5009.43 1639.27,5009.43C1626.55,5009.43 1614.73,5016.07 1608.01,5026.99C1530.84,5153.48 1337.53,5486.47 1337.53,5647.54C1337.53,5815.94 1472.73,5952.66 1639.27,5952.66C1805.8,5952.66 1941,5815.94 1941,5647.54C1941,5486.47 1747.69,5153.48 1670.53,5026.99Z" style="fill:url(#_Linear3);"/>
                </g>
                <g transform="matrix(1.39705,-1.71089e-16,-1.64986e-16,-1.34722,-781.439,7821.88)">
                    <path d="M1670.53,5026.99C1663.81,5016.07 1651.99,5009.43 1639.27,5009.43C1626.55,5009.43 1614.73,5016.07 1608.01,5026.99C1530.84,5153.48 1337.53,5486.47 1337.53,5647.54C1337.53,5815.94 1472.73,5952.66 1639.27,5952.66C1805.8,5952.66 1941,5815.94 1941,5647.54C1941,5486.47 1747.69,5153.48 1670.53,5026.99Z" style="fill:url(#_Linear4);"/>
                </g>
                <g transform="matrix(0.987861,0.987861,-0.952625,0.952625,4362.47,-4596.61)">
                    <path d="M1670.53,5026.99C1663.81,5016.07 1651.99,5009.43 1639.27,5009.43C1626.55,5009.43 1614.73,5016.07 1608.01,5026.99C1530.84,5153.48 1337.53,5486.47 1337.53,5647.54C1337.53,5815.94 1472.73,5952.66 1639.27,5952.66C1805.8,5952.66 1941,5815.94 1941,5647.54C1941,5486.47 1747.69,5153.48 1670.53,5026.99Z" style="fill:url(#_Linear5);"/>
                </g>
                <g transform="matrix(0.987861,0.987861,0.952625,-0.952625,-4583.82,4349.68)">
                    <path d="M1670.53,5026.99C1663.81,5016.07 1651.99,5009.43 1639.27,5009.43C1626.55,5009.43 1614.73,5016.07 1608.01,5026.99C1530.84,5153.48 1337.53,5486.47 1337.53,5647.54C1337.53,5815.94 1472.73,5952.66 1639.27,5952.66C1805.8,5952.66 1941,5815.94 1941,5647.54C1941,5486.47 1747.69,5153.48 1670.53,5026.99Z" style="fill:url(#_Linear6);"/>
                </g>
                <g transform="matrix(0.987861,-0.987861,0.952625,0.952625,-4583.82,-1357.87)">
                    <path d="M1670.53,5026.99C1663.81,5016.07 1651.99,5009.43 1639.27,5009.43C1626.55,5009.43 1614.73,5016.07 1608.01,5026.99C1530.84,5153.48 1337.53,5486.47 1337.53,5647.54C1337.53,5815.94 1472.73,5952.66 1639.27,5952.66C1805.8,5952.66 1941,5815.94 1941,5647.54C1941,5486.47 1747.69,5153.48 1670.53,5026.99Z" style="fill:url(#_Linear7);"/>
                </g>
                <g transform="matrix(0.987861,-0.987861,-0.952625,-0.952625,4362.47,7588.41)">
                    <path d="M1670.53,5026.99C1663.81,5016.07 1651.99,5009.43 1639.27,5009.43C1626.55,5009.43 1614.73,5016.07 1608.01,5026.99C1530.84,5153.48 1337.53,5486.47 1337.53,5647.54C1337.53,5815.94 1472.73,5952.66 1639.27,5952.66C1805.8,5952.66 1941,5815.94 1941,5647.54C1941,5486.47 1747.69,5153.48 1670.53,5026.99Z" style="fill:url(#_Linear8);"/>
                </g>
                <g transform="matrix(1.57088,0,0,1.57088,-2613.01,-5130.11)">
                    <circle cx="2623.81" cy="4217.07" r="152.068" style="fill:url(#_Linear9);"/>
                </g>
            </g>
        </g>
    </g>
    <defs>
        <linearGradient id="_Linear1" x1="0" y1="0" x2="1" y2="0" gradientUnits="userSpaceOnUse" gradientTransform="matrix(603.475,0,0,975.916,1337.53,5464.7)"><stop offset="0" style="stop-color:rgb(96,81,183);stop-opacity:1"/><stop offset="1" style="stop-color:rgb(145,140,196);stop-opacity:1"/></linearGradient>
        <linearGradient id="_Linear2" x1="0" y1="0" x2="1" y2="0" gradientUnits="userSpaceOnUse" gradientTransform="matrix(603.475,0,0,975.916,1337.53,5464.7)"><stop offset="0" style="stop-color:rgb(96,81,183);stop-opacity:1"/><stop offset="1" style="stop-color:rgb(145,140,196);stop-opacity:1"/></linearGradient>
        <linearGradient id="_Linear3" x1="0" y1="0" x2="1" y2="0" gradientUnits="userSpaceOnUse" gradientTransform="matrix(603.475,0,0,975.916,1337.53,5464.7)"><stop offset="0" style="stop-color:rgb(96,81,183);stop-opacity:1"/><stop offset="1" style="stop-color:rgb(145,140,196);stop-opacity:1"/></linearGradient>
        <linearGradient id="_Linear4" x1="0" y1="0" x2="1" y2="0" gradientUnits="userSpaceOnUse" gradientTransform="matrix(603.475,0,0,975.916,1337.53,5464.7)"><stop offset="0" style="stop-color:rgb(96,81,183);stop-opacity:1"/><stop offset="1" style="stop-color:rgb(145,140,196);stop-opacity:1"/></linearGradient>
        <linearGradient id="_Linear5" x1="0" y1="0" x2="1" y2="0" gradientUnits="userSpaceOnUse" gradientTransform="matrix(603.475,0,0,975.916,1337.53,5464.7)"><stop offset="0" style="stop-color:rgb(96,81,183);stop-opacity:1"/><stop offset="1" style="stop-color:rgb(145,140,196);stop-opacity:1"/></linearGradient>
        <linearGradient id="_Linear6" x1="0" y1="0" x2="1" y2="0" gradientUnits="userSpaceOnUse" gradientTransform="matrix(603.475,0,0,975.916,1337.53,5464.7)"><stop offset="0" style="stop-color:rgb(96,81,183);stop-opacity:1"/><stop offset="1" style="stop-color:rgb(145,140,196);stop-opacity:1"/></linearGradient>
        <linearGradient id="_Linear7" x1="0" y1="0" x2="1" y2="0" gradientUnits="userSpaceOnUse" gradientTransform="matrix(603.475,0,0,975.916,1337.53,5464.7)"><stop offset="0" style="stop-color:rgb(96,81,183);stop-opacity:1"/><stop offset="1" style="stop-color:rgb(145,140,196);stop-opacity:1"/></linearGradient>
        <linearGradient id="_Linear8" x1="0" y1="0" x2="1" y2="0" gradientUnits="userSpaceOnUse" gradientTransform="matrix(603.475,0,0,975.916,1337.53,5464.7)"><stop offset="0" style="stop-color:rgb(96,81,183);stop-opacity:1"/><stop offset="1" style="stop-color:rgb(145,140,196);stop-opacity:1"/></linearGradient>
        <linearGradient id="_Linear9" x1="0" y1="0" x2="1" y2="0" gradientUnits="userSpaceOnUse" gradientTransform="matrix(304.136,0,0,304.136,2471.74,4217.07)"><stop offset="0" style="stop-color:rgb(96,81,183);stop-opacity:1"/><stop offset="1" style="stop-color:rgb(145,140,196);stop-opacity:1"/></linearGradient>
    </defs>
</svg>
